<?xml version="1.0" encoding="UTF-8"?>
<svg version="1.1" xmlns="http://www.w3.org/2000/svg"
     width="282.5" height="282.5"
     viewBox="1089.00 72.00 282.50 282.50">
  <path d="M 10069.8,9973.85 9969.29,10376 c 24.18,-17.3 87.91,-63 144.71,-103.7 -6.7,-99 -21.6,-199.2 -44.2,-298.45 z m -94.93,-306.01 c -116.86,116.86 -78.19,78.19 -198.24,198.24 l 279.87,52.88 c -21.5,-83.36 -48.9,-167.7 -81.63,-251.12 z m -212.39,184.1 c 72.7,-72.69 123.59,-123.58 198.26,-198.25 -83.49,-32.77 -167.87,-60.18 -251.22,-81.65 z m -406.22,-337.4 c -26.26,36.64 -77.31,107.85 -103.69,144.65 l 402.11,-100.49 c -98.79,-22.55 -198.97,-37.38 -298.42,-44.16 z m -231.82,-1.48 104.13,145.27 104.14,-145.27 c -71.38,-4.09 -136.98,-4.1 -208.27,0 z m 80.15,146.13 c -24.69,-34.44 -89.71,-125.15 -103.69,-144.65 -99.49,6.78 -199.71,21.61 -298.53,44.16 201.89,50.44 184.25,46.04 402.22,100.49 z m -708.19,-5.51 198.17,198.26 52.96,-279.9 c -83.4,21.48 -167.74,48.9 -251.13,81.64 z m -8.63,722.32 c -61.79,-247.2 -90.74,-362.8 -100.51,-401.85 -22.63,99.05 -37.49,199.15 -44.23,298.15 z m -100.51,449.8 c 0.67,-2.6 52.63,-210.2 100.51,-401.8 l -144.74,103.7 c 6.74,99 21.6,199.1 44.23,298.1 z m 307.31,122.3 -198.17,198.2 c 83.41,32.8 167.74,60.2 251.13,81.6 z m 406.33,337.3 c 14.05,-19.6 79.02,-110.2 103.69,-144.6 -217.95,54.4 -200.34,50 -402.22,100.5 98.82,22.5 199.04,37.4 298.53,44.1 z m 231.81,1.5 -104.14,-145.2 -104.13,145.2 c 71.25,4.1 136.85,4.1 208.27,0 z m -80.14,-146.1 c 26.85,37.5 77.54,108.2 103.69,144.6 99.45,-6.7 199.63,-21.6 298.42,-44.1 z m 708.17,5.5 -198.26,-198.3 -52.96,279.9 c 83.35,-21.4 167.72,-48.8 251.22,-81.6 z m -184.11,-212.4 198.24,198.3 c 32.73,-83.5 60.13,-167.8 81.63,-251.2 z m 192.66,-509.9 100.51,402.1 c 22.6,-99.2 37.5,-199.4 44.2,-298.4 z M 8768.13,9570.76 c -39.5,208.77 -28.3,149.54 -55.18,291.63 h 265.03 l 228.53,-182.1 c -162.66,-40.64 -303.89,-75.93 -438.38,-109.53 z m -87.7,295.32 -198.15,-198.24 c -32.94,84.13 -60.36,168.46 -81.65,251.12 48.89,-9.24 177.76,-33.6 279.8,-52.88 z m -171.56,511.82 182.01,-228.5 v -264.94 l -291.58,55.1 c 105.97,424.04 95.92,383.74 109.57,438.34 z m -109.57,482.5 291.58,55.1 v -264.9 l -182.01,-228.5 c -28.21,112.8 17.04,-68.2 -109.57,438.3 z m 82.98,271.7 198.15,-198.2 c -108.43,-20.5 -231.95,-43.8 -279.8,-52.9 21.28,82.7 48.71,167 81.65,251.1 z m 724.23,-12.4 -228.53,-182.1 h -265.03 c 27.3,144.3 15.54,82.2 55.18,291.6 134.54,-33.6 275.72,-68.9 438.38,-109.5 z m -495.63,-990.9 c 116.42,-116.4 60.8,-60.8 246.4,-246.41 h -246.4 z m 0,542.4 v 246.4 h 246.4 c -174.57,-174.6 -119.76,-119.8 -246.4,-246.4 z m 1033.22,266.4 h -265.03 l -228.44,182.1 438.29,109.5 c 39.5,-208.7 28.3,-149.5 55.18,-291.6 z m 22.07,-788.2 182.01,228.5 109.62,-438.35 -291.63,-55.09 z m -20,-20.6 v -246.41 h -246.38 c 244.4,244.41 202.57,202.61 246.38,246.41 z m -736.05,-266.45 h 436.82 l -218.37,-174.07 c -112.81,89.89 -105.65,84.19 -218.45,174.07 z m 218.45,1249.35 218.37,-174.1 h -436.82 c 112.79,89.9 105.62,84.2 218.45,174.1 z m 517.6,-440.5 c -52.14,52.2 -8.23,8.2 -246.38,246.4 h 246.38 z m 20,-20.6 v 264.9 l 291.63,-55.1 -109.62,-438.3 z m 0,-469.1 v 437 c 78.14,-98.1 95.97,-120.5 174.02,-218.5 -78.05,-98 -95.89,-120.4 -174.02,-218.5 z m -1055.27,-24.4 v 485.8 c 137.67,137.7 74.43,74.5 274.71,274.7 h 485.83 c 259.18,-259.1 203.96,-203.9 274.73,-274.7 v -485.8 c -59.23,-59.3 -9.2,-9.3 -274.73,-274.71 h -485.83 c -205.05,205.01 -148.22,148.21 -274.71,274.71 z m -194.04,242.9 c 78.05,98 95.89,120.4 174.02,218.5 v -437 c -78.13,98.1 -95.96,120.5 -174.02,218.5 z m 1172.06,-829.24 -438.29,109.53 228.44,182.1 h 265.03 c -27.3,-144.31 -15.54,-82.16 -55.18,-291.63 z M 8486.9,10400 8341.55,10295.9 c -3.95,69.8 -3.95,138.3 0,208.2 z m 1483.25,0 c 36.85,26.4 133.85,95.9 145.35,104.1 4.1,-71.3 4.1,-136.9 0,-208.2 -42.5,30.4 -88.1,63.1 -145.35,104.1 z m 164.25,123.4 v 0.1 c -7.6,115.2 -25.9,232 -54.6,347.2 -31.6,126.7 -85.92,273.1 -92.73,284.4 -0.89,1.5 -1.92,2.5 -3.41,3.4 -0.62,0.4 -1.34,0.8 -1.37,0.8 -278.51,111.4 -571.79,166.6 -877.16,146.5 -194.06,-12.7 -348.31,-54.9 -347.3,-54.6 -129.33,-32.2 -277,-86.8 -285.39,-93.4 -1.22,-0.9 -2.37,-2.4 -2.98,-3.8 -19.23,-43.3 -64.11,-171 -92.09,-283.3 -49.4,-197.6 -67.68,-397.1 -54.67,-594.2 v 0 c 14.29,-219.2 66.44,-429.33 146.59,-630.21 1.75,-4.41 6.59,-5.99 5.56,-5.58 487.84,-195.35 991.64,-206.37 1507.44,0 4.38,1.76 5.97,6.58 5.57,5.57 112.04,280.65 166.54,573.22 146.54,877.12" style="fill:#1d1d1b;fill-opacity:1;fill-rule:nonzero;stroke:none" transform="matrix(0.13333333,0,0,-0.13333333,0,1600)" />
</svg>