<?xml version="1.0" encoding="UTF-8"?>
<svg version="1.1" xmlns="http://www.w3.org/2000/svg"
     width="282.5" height="282.5"
     viewBox="2445.00 72.00 282.50 282.50">
  <path d="m 20014.4,9515.61 -91.1,133.77 c 139.5,139.47 88,87.93 227.4,227.29 l 133.7,-91.05 c -41.8,-41.81 -224.9,-224.95 -270,-270.01 z M 18805.9,9510 c 33.2,48.78 56.5,82.89 89,130.6 h 1010.2 c 32,-46.95 55.4,-81.35 89,-130.6 z m -156.6,366.67 c 139.5,-139.47 87.9,-87.93 227.4,-227.29 l -91.2,-133.77 -269.9,270.01 z m 136.2,1407.73 c 15.5,-22.7 55.6,-81.6 91.1,-133.7 -134,-134 -87.9,-87.9 -227.3,-227.3 l -133.7,91.1 z m 1498.9,-269.9 -133.7,-91.1 c -134,134 -88,88 -227.4,227.3 l 91.1,133.7 c 78.6,-78.5 106.2,-106.1 270,-269.9 z m -372.5,-1348.29 -81.6,119.86 c 90.4,90.34 137.8,137.49 162.5,162.08 10.2,10.17 16.9,16.84 21.4,21.48 l 119.7,-81.51 c -77.7,-77.61 -144.4,-144.3 -222,-221.91 z m -924,111.08 h 824.2 l 79.4,-116.69 h -983 z m -321.8,110.84 119.7,81.49 c 9.7,-10.12 30.4,-30.22 183.8,-183.55 -24.3,-35.77 -12.4,-18.27 -81.5,-119.86 -79,78.94 -138,137.93 -222,221.92 z m 1239,1271.37 h -1010.2 l -89,130.5 h 1188.2 z m 254.4,-254.3 130.5,88.9 V 9806.01 l -130.5,88.87 z m -1081.4,-995.61 h 643.8 c 34.7,-50.86 17.5,-25.62 76.6,-112.3 h -797 c 58.6,85.93 41.6,61 76.6,112.3 z m -108.4,1104.41 -183.8,-183.7 -119.8,81.7 222,221.9 z m 842.4,8.8 h -824.2 l -79.4,116.7 h 983 z m 202.1,-192.7 -183.9,183.9 81.6,119.9 222,-221.9 c -85.4,-58.2 -102.1,-69.8 -119.7,-81.9 z m -274.1,-911.72 c 14.4,14.44 129.1,129.12 141.5,141.52 l 115.4,-78.58 c -42.5,-41.91 70.3,69.88 -178.2,-178.42 -26.3,38.63 -54.6,80.18 -78.7,115.48 z m -663.2,11.21 c -51.5,51.54 -95.8,95.81 -147.3,147.31 v 646.3 c 51.5,51.5 95.8,95.8 147.3,147.3 h 646.1 c 51.6,-51.5 95.8,-95.8 147.4,-147.3 v -646.3 c -51.6,-51.5 -95.8,-95.77 -147.4,-147.31 z m -299.7,882.21 v -823.67 c -39.6,-25.88 77,52.27 -116.7,-79.63 v 983.1 c 194.7,-132.8 77.4,-54 116.7,-79.8 z m 141.2,-71.6 c -21.1,14.3 -71,48.3 -115.4,78.6 52.3,51.3 -100.3,-100 178.1,178.4 l 78.8,-115.5 c -14.5,-14.4 -129.2,-129.1 -141.5,-141.5 z m -120.9,-640.6 c -0.1,106.6 -0.3,310.2 -0.3,698.9 l 112.4,-76.5 v -643.9 l -112.3,-76.4 c 0.3,17.3 0.2,46.7 0.2,97.9 z m 924.4,790.9 h -643.8 c -34.7,50.9 -17.5,25.6 -76.6,112.3 h 797 c -58.6,-85.9 -41.6,-61 -76.6,-112.3 z m 275.3,-71.6 c -44.7,-30.5 -94.6,-64.4 -115.6,-78.7 -12.4,12.4 -127.1,127.1 -141.5,141.5 l 78.7,115.5 z m 5.4,-817.2 -112.2,76.4 v 643.9 l 112.4,76.5 c 0,-386.1 -0.2,-589.6 -0.3,-696.7 -0.1,-52.6 -0.1,-82.6 0.1,-100.1 z m -1021.5,-198.8 -178.4,178.29 115.7,78.71 c 12.3,-12.4 127,-127.08 141.5,-141.52 -27.9,-40.87 -48.9,-71.58 -78.8,-115.48 z m 1158.4,105.6 -116.7,79.45 v 823.95 c 0,0 90,61.5 116.7,79.7 z m -1499,-13.62 -130.5,-88.87 v 1188.09 l 130.5,-88.9 z m 1668.9,-110.91 c 1,2.94 0.9,1229.93 -0.3,1232.83 -1.1,2.7 17.8,-16.3 -289.1,290.3 -1.5,1.5 -4.5,2.9 -7,2.9 -1280,0 -1228.3,1.5 -1232.9,-2.8 -13,-12.4 -289,-289.1 -287.3,-287.4 -1.7,-1.7 -2.8,-4.4 -2.8,-6.8 0,-1278.44 -1.6,-1228.18 2.8,-1232.75 9.7,-10.27 286.4,-286.55 287.4,-287.52 1.8,-1.7 4.6,-2.73 6.8,-2.73 1281,0 1228.2,-1.52 1232.8,2.73 1.7,1.68 284.9,284.89 287.4,287.57 1.1,1.09 1.9,2.67 2.2,3.67" style="fill:#1d1d1b;fill-opacity:1;fill-rule:nonzero;stroke:none" transform="matrix(0.13333333,0,0,-0.13333333,0,1600)" />
</svg>