<?xml version="1.0" encoding="UTF-8"?>
<svg version="1.1" xmlns="http://www.w3.org/2000/svg"
     width="193.5" height="316.0"
     viewBox="2489.50 837.50 193.50 316.00">
  <path d="m 18981.4,3640.81 c 558.3,0 826.8,0 837.1,0 31.6,-31.53 91.1,-91.05 122.5,-122.47 h -1082.1 z m 959.6,1907.53 -122.5,-122.48 c -406.2,0 -821.5,0 -837.1,0 -31.5,31.54 -91,91.06 -122.5,122.48 z m -200,-228.42 c 18.5,18.46 53.3,53.3 71.7,71.69 V 3675.07 l -71.7,71.68 z m -739.7,-1659.11 c 18.6,18.59 53.4,53.38 71.8,71.8 h 653.8 l 71.7,-71.8 z m -14,14.26 v 1716.54 l 71.7,-71.69 V 3746.75 c -18.4,-18.35 -53.4,-53.31 -71.7,-71.68 z m 91.7,77.54 v 1561.45 h 642 V 3752.61 Z m 719.6,1653.25 c -18.6,-18.6 -53.3,-53.34 -71.7,-71.8 h -653.8 l -71.8,71.8 z m -953.8,128.34 c 31.4,-31.42 90.9,-90.94 122.5,-122.48 V 3654.95 l -122.5,-122.47 z m 1110.4,-2001.72 c -31.5,31.42 -91,90.94 -122.5,122.47 v 1756.77 l 122.5,122.48 z m 20,2025.86 c 0,0.05 -0.2,1.12 -0.3,1.94 -0.9,4.45 -4.2,7.04 -7.8,7.77 -1,0.2 -1132.9,1.17 -1136.9,-0.95 -1.8,-0.95 -3.1,-2.21 -4.1,-4.1 -2.2,-4.12 -1.2,-2055.59 -1,-2056.59 0.5,-2.77 2,-4.72 3.8,-6.04 4.4,-3.33 1137.5,-2.56 1140.9,-0.78 8.2,4.37 5.4,-138.74 5.4,2058.75" style="fill:#1d1d1b;fill-opacity:1;fill-rule:nonzero;stroke:none" transform="matrix(0.13333333,0,0,-0.13333333,0,1600)" />
</svg>