<?xml version="1.0" encoding="UTF-8"?>
<svg version="1.1" xmlns="http://www.w3.org/2000/svg"
     width="282.5" height="282.5"
     viewBox="1767.00 72.00 282.50 282.50">
  <path d="m 15067.6,9685.98 -50.8,267.18 125.7,-32.99 c -20,-77.86 -45.2,-156.45 -74.9,-234.19 z m -273.5,-114.23 -33,125.69 267.2,-50.79 c -77.8,-29.73 -156.4,-54.86 -234.2,-74.9 z m -435.2,-61.21 381.9,185.37 33.9,-129.04 c -138.1,-34.07 -277.7,-52.97 -415.8,-56.33 z m -505.1,56.33 33.9,129.04 382,-185.37 c -138.2,3.36 -277.8,22.26 -415.9,56.33 z m 13.7,130.57 -33,-125.68 c -77.9,20.03 -156.5,45.16 -234.2,74.9 z m -255.8,255.72 c -7.2,-37.85 -38.6,-203.16 -50.8,-267.18 -29.7,77.75 -54.8,156.34 -74.9,234.19 z m -50.8,1160.84 50.8,-267.2 -125.7,33 c 20.1,77.9 45.2,156.5 74.9,234.2 z m 273.6,114.2 33,-125.7 -267.2,50.8 c 77.7,29.8 156.3,54.9 234.2,74.9 z m 435.2,61.3 -382,-185.4 -33.9,129 c 138.1,34.1 277.7,53 415.9,56.4 z m 505,-56.4 -33.9,-129 -381.9,185.4 c 138.1,-3.4 277.7,-22.3 415.8,-56.4 z m -13.6,-130.6 33,125.7 c 77.8,-20 156.4,-45.1 234.2,-74.9 z m 255.7,-255.7 50.8,267.2 c 29.8,-77.8 54.9,-156.3 74.9,-234.2 z m -248.9,-1130.28 c 102.3,102.38 176.9,176.99 229.8,229.9 l 54,-283.86 z m -64,-16.3 -389.6,-189.11 -389.7,189.11 z m -843.2,16.3 -283.9,-53.96 54,283.86 c 137.5,-137.45 87.2,-87.17 229.9,-229.9 z m 63.9,1383.28 389.7,189.1 389.6,-189.1 z M 15014,10010.4 v 779.2 l 189.2,-389.6 z m -258.1,-277.54 -16.3,241.8 c 292.9,-19.74 233.4,-15.73 241.8,-16.3 -78.9,-78.86 -146.6,-146.63 -225.5,-225.5 z m -441.6,66.33 344.7,-78.97 h -689.4 z m -667.2,159.17 c 22.3,1.51 219.2,14.78 241.8,16.3 l -16.3,-241.8 c -78.8,78.87 -146.6,146.64 -225.5,225.5 z m -32.6,831.24 v -779.2 l -189.1,389.6 z m 258.1,277.5 16.3,-241.8 c -292.8,19.8 -233.3,15.8 -241.8,16.3 78.9,78.9 146.7,146.7 225.5,225.5 z m 441.7,-66.3 -344.7,79 h 689.4 z m 667.1,-159.2 c -23.1,-1.5 -217,-14.6 -241.8,-16.3 l 16.3,241.8 c 78.9,-78.8 146.6,-146.6 225.5,-225.5 z m 12.6,-786.3 -78.9,344.7 78.9,344.7 z m -250.3,-60.53 158.3,372.93 c 42.3,-184.9 24.5,-106.9 89.3,-389.96 -182.8,12.32 -232.3,16.01 -247.6,17.03 z m -1106.4,-17.03 c 18.8,82.06 69.1,301.86 89.3,389.96 l 158.2,-372.92 c -18.1,-1.22 -51.3,-3.8 -247.5,-17.04 z m -2.8,766.96 79,-344.7 -79,-344.7 z m 250.4,60.5 c -61.6,-145.1 -131.2,-309 -158.3,-372.9 -50,218.3 -39.4,172 -89.3,389.9 178.4,-12 230.2,-15.8 247.6,-17 z m 834.9,-834.49 16.7,-247.73 -389.9,89.32 z m -811.1,858.59 -16.7,247.7 390,-89.3 z m 811.1,0 -373.2,158.4 389.9,89.3 z m -812.5,-836.26 -172.7,406.96 c 110.7,260.9 74.3,175.1 172.7,406.9 l 407,172.8 406.9,-172.8 172.8,-406.9 -172.8,-406.96 -406.9,-172.73 c -237.6,100.82 -117.3,49.77 -407,172.73 z m 374.7,-180.74 -390,-89.32 16.7,247.73 c 224.2,-95.13 238.8,-101.34 373.3,-158.41 z m 709.3,1009.9 c -65.9,-287.8 -46.5,-202.9 -89.3,-389.9 l -158.3,372.9 c 24,1.6 45.7,3.4 247.6,17 z m -223.4,261.3 283.8,53.9 -54,-283.8 c -137.4,137.4 -87.1,87.1 -229.8,229.9 z m -1137.1,-229.9 -54,283.8 283.9,-53.9 c -137.5,-137.5 -87.2,-87.2 -229.9,-229.9 z m 1572.9,-409 -185.3,381.9 129,33.9 c 34.1,-138.1 53,-277.7 56.3,-415.8 z m -1722.5,415.8 129,-33.9 -185.4,-381.9 c 3.4,138.1 22.3,277.8 56.4,415.8 z m -56.4,-505 185.4,-381.96 -129,-33.87 c -34.1,138.03 -53,277.73 -56.4,415.83 z m 1722.6,-415.83 -129,33.87 185.3,381.96 c -3.3,-138.2 -22.2,-277.8 -56.3,-415.83 z m 16.9,935.53 c -30.1,119.4 -77.4,250.1 -91,279.1 -0.2,0.3 -0.3,0.7 -0.5,1 0,0 -0.1,0.1 -0.1,0.2 0,0 -0.9,1.1 -1.1,1.3 -0.1,0.1 -0.1,0.3 -0.3,0.4 -0.1,0.1 -0.2,0.1 -0.3,0.2 -0.1,0.2 -1.5,1.2 -1.6,1.2 -19.7,11.9 -173,64.6 -280,91.6 -316.5,79.7 -633.3,79.9 -950.2,0 -117.9,-29.7 -248.7,-76.8 -279.1,-91.1 -1.1,-0.5 -2.5,-1.5 -2.9,-1.9 -0.1,-0.2 -0.2,-0.3 -0.3,-0.4 -0.1,-0.1 -1,-1.3 -1,-1.4 -11.3,-17.6 -64.6,-172.7 -91.7,-280.2 -79.8,-316.4 -79.9,-633.2 0,-950.22 30.2,-119.88 78,-251.61 91.1,-279.12 0.1,-0.31 0.2,-0.64 0.4,-0.94 0.1,-0.06 0.1,-0.11 0.2,-0.18 0,-0.05 0.8,-1.06 1,-1.26 0.1,-0.15 0.2,-0.32 0.3,-0.46 7.3,-7.26 161.7,-62.67 282,-93 316.4,-79.78 633.2,-79.9 950.2,0 162.1,40.87 281.4,92.31 279.3,91.25 0.9,0.43 1.6,0.84 2.4,1.56 0,0.08 0.2,0.11 0.2,0.19 8.3,8.27 64.7,169.34 93,281.96 79.8,316.52 80,633.22 0,950.22" style="fill:#1d1d1b;fill-opacity:1;fill-rule:nonzero;stroke:none" transform="matrix(0.13333333,0,0,-0.13333333,0,1600)" />
</svg>