<?xml version="1.0" encoding="UTF-8"?>
<svg version="1.1" xmlns="http://www.w3.org/2000/svg"
     width="234.5" height="329.5"
     viewBox="774.00 830.50 234.50 329.50">
  <path d="m 7103.39,3475.33 -54.23,91.28 245.28,256.83 c 2.22,-1.19 92.18,-49.19 93.77,-50.04 z m -815.95,-6.55 c 72.36,121.82 32.64,54.95 53.02,89.25 H 7031 l 53.28,-89.68 c -149.12,-0.46 176.96,0.4 -796.84,0.43 z m -210.41,354.66 245.26,-256.83 c -24.26,-40.83 -37.56,-63.07 -54.37,-91.13 l -284.67,297.92 c 8.82,4.71 83.66,44.64 93.78,50.04 z m 191.04,1767.9 54.22,-91.28 -245.26,-256.83 c -10.11,5.4 -84.97,45.34 -93.78,50.04 z m 815.95,6.55 c -54.94,-92.48 -52.52,-88.4 -53.02,-89.25 h -690.54 l -53.27,89.68 c 152.52,0.29 -47.34,-0.41 796.83,-0.43 z m 211.69,-353.98 c -1.99,-1.06 18.37,-21.25 -246.55,256.15 28.58,48.08 40.14,67.35 54.37,91.13 l 284.68,-297.92 z M 6387.03,3636.59 h 597.4 l 34.71,-58.56 h -666.82 z m 597.4,1793.49 h -597.4 l -34.71,58.56 h 666.82 z m 318.01,-205.24 92.32,49.25 c 0.86,-151.48 0.86,-1329.94 0,-1481.51 l -92.32,49.25 z M 6431.41,3711.03 c 20.3,-0.81 61.45,0.06 508.85,0.06 18.38,-30.99 11.23,-18.93 32.31,-54.5 h -573.68 c 25.4,42.73 27.77,46.41 32.52,54.44 z m -336.06,122.18 62.17,33.2 211.34,-221.24 c -10.01,-16.88 -2.5,-4.22 -35.97,-60.7 -6.53,6.84 37.51,-39.28 -237.54,248.74 z m 237.54,1648.99 c 31.72,-53.53 24.08,-40.64 35.97,-60.7 l -211.34,-221.24 -62.17,33.2 c 240.53,251.86 234.99,246.07 237.54,248.74 z m 607.37,-126.62 H 6431.2 c -23,38.78 -15.52,26.17 -32.31,54.5 h 573.68 c -21.08,-35.57 -13.9,-23.45 -32.31,-54.5 z m 335.85,-122.12 -62.16,-33.2 -211.35,221.24 c 10,16.88 2.5,4.22 35.97,60.7 70.64,-73.98 39.04,-40.89 237.54,-248.74 z m 6.33,-1380.95 -60.48,32.29 v 1297.07 l 60.48,32.29 z m -324.01,-132.83 c 116.99,122.59 80.84,84.71 178.99,187.57 l 58.21,-31.06 L 6992,3663.04 c -6.43,10.84 -2.25,3.79 -33.57,56.64 z m -869.41,1494.48 60.48,-32.29 V 3884.8 l -60.48,-32.29 z m 902.98,189.47 203.63,-213.15 -58.21,-31.06 c -98.12,102.82 -62.04,65.02 -178.99,187.57 31.29,52.79 27.51,46.41 33.57,56.64 z m 209.96,-1508.15 -56.53,30.16 v 1215.39 l 56.53,30.16 z m -967.93,1263.94 -58.2,31.06 203.62,213.15 33.59,-56.64 c -105.2,-110.23 -64.06,-67.12 -179.01,-187.57 z m -64.53,11.77 56.53,-30.16 V 3925.64 l -56.53,-30.16 z m 64.53,-1263.94 179.05,-187.51 -33.63,-56.71 -203.62,213.16 c 35.33,18.86 18.62,9.94 58.2,31.06 z m 707.64,1428.33 183.76,-192.57 V 3923.66 L 6941.67,3731.09 H 6429.9 l -183.87,192.57 v 1219.35 l 183.76,192.57 z m -872.65,-1493.75 -92.32,-49.25 c -0.87,151.52 -0.87,1329.99 0,1481.51 l 92.32,-49.25 z m 969.55,-257.36 c -31.73,53.53 -24.09,40.64 -35.97,60.7 l 211.35,221.24 62.16,-33.2 c -216.52,-226.72 -171.96,-180.06 -237.54,-248.74 z m 376.86,948.86 c 0,803.32 -0.74,759.31 -2.51,762.29 -0.59,1.88 -304.25,319.18 -305.31,320.01 -1.66,1.3 -3.38,1.95 -5.24,2.09 -8.4,0.73 -831.03,-0.05 -831.3,-0.01 -3.18,0.4 -6.63,-1.03 -8.46,-3.01 -4.65,-5.03 -303.91,-317.95 -304.4,-319.65 -3.77,-7.45 -1.01,-1516.44 -1.17,-1517.45 -0.37,-2.28 0.3,-4.46 1.42,-6.42 0.41,-1.3 303.17,-318.05 304.12,-319.05 4.96,-5.49 -42.17,-2.82 723.25,-3.72 48.78,-0.05 100.49,-0.28 113.96,0.77 0.22,-0.04 0.39,-0.19 0.6,-0.22 2,-0.25 3.83,0.21 5.64,1.14 1.55,0.49 2.11,1.1 2.83,1.87 9.26,10.05 303.51,317.28 304.08,319.11 1.89,3.21 2.49,-46.05 2.49,762.25" style="fill:#1d1d1b;fill-opacity:1;fill-rule:nonzero;stroke:none" transform="matrix(0.13333333,0,0,-0.13333333,0,1600)" />
</svg>