<?xml version="1.0" encoding="UTF-8"?>
<svg version="1.1" xmlns="http://www.w3.org/2000/svg"
     width="296.0" height="273.0"
     viewBox="65.00 1250.00 296.00 273.00">
  <path d="m 2294.87,1615.7 c 61.79,-43.7 34.35,-24.3 132.53,-93.7 -55.34,-111.2 -130.44,-223.6 -218.64,-327.1 z m -350.99,-673.899 -164.53,103.299 382.4,96.7 c -67.67,-73.4 -140.82,-140.6 -217.87,-199.999 z M 1620.12,753.699 c 180.73,367.401 121.31,245.699 138.34,280.901 l 168.43,-105.799 c -100.84,-75.899 -206.16,-136 -306.77,-175.102 z m -347.07,175.102 c 61.76,38.801 23.09,14.597 168.42,105.799 43.41,-89.698 -89.54,182.2 138.47,-280.901 -100.16,38.801 -205.51,98.903 -306.89,175.102 z M 1038.19,1141.8 1420.58,1045.1 1256.05,941.801 C 1179,1001.2 1105.85,1068.4 1038.19,1141.8 Z M 772.535,1522 c 100.352,71 70.32,49.7 132.528,93.7 l 86.109,-420.8 C 902.969,1298.4 827.871,1410.8 772.535,1522 Z m 123.86,112.1 -132.739,-93.8 c -54.476,113.9 -87.734,224.3 -99.066,328.7 86.988,-88.1 147.828,-149.8 231.805,-234.9 z M 737.992,2218.88 944.109,2121.7 C 805.523,2020.51 674.07,1924.9 660.855,1915 c -5.98,111.72 19.93,213.83 77.137,303.88 z m 198.321,180.77 c 9.839,-157.16 6.425,-102.63 16.265,-259.83 l -203.433,95.91 c 47.925,69.52 112.226,125.83 187.168,163.92 z m 280.517,52.26 25.71,-148.46 c -92.24,38.05 -192.22,79.29 -271.852,112.14 77.542,32.51 162.022,45.03 246.142,36.32 z m 373.18,-228.27 -0.08,-98.51 -312.35,161.97 167.38,83.18 c 57.6,-38.29 107.62,-88.85 145.05,-146.64 z m 164.98,146.63 167.37,-83.17 c -79.41,-41.16 -232.84,-120.7 -312.43,-161.96 l 0.09,98.5 c 37.58,57.86 87.57,108.41 144.97,146.63 z m 181.89,-68.06 c -106.01,52.69 -147.32,73.39 -161.9,80.64 57.2,34.28 121.4,57.08 187.38,66.52 -11.72,-67.72 -5.99,-34.6 -25.48,-147.16 z m 292.31,113.46 -271.79,-112.21 c 13.14,75.89 12.74,73.61 25.7,148.45 83.96,8.7 168.4,-3.78 246.09,-36.24 z m 221.6,-179.94 -203.44,-95.9 16.27,259.92 c 75.05,-38.24 139.36,-94.58 187.17,-164.02 z m 88.29,-320.93 -283.26,206.9 c 53.93,25.43 154.33,72.77 206.1,97.18 57.58,-90.92 83.15,-195.64 77.16,-304.08 z m -102.81,-374.5 -132.73,93.8 c 324.64,329 168.35,170 231.75,234.6 -11.36,-104.4 -44.6,-214.7 -99.02,-328.4 z M 1600.01,758.102 C 1441.85,1079.4 1474.34,1012.8 1457.47,1047.4 l 142.54,162.4 142.46,-162.4 c -10.72,-22 -11.25,-22.6 -142.46,-289.298 z M 1245.05,2280.77 c -1.51,-23.79 -11.07,-174.41 -13.26,-208.88 l -258.653,59.74 -16.797,268.23 c 73.7,-30.4 215.11,-88.73 288.71,-119.09 z m 18,21.44 -25.48,147.17 c 66.76,-9.46 129.66,-31.79 187.4,-66.52 -18.12,-9.02 -42.94,-21.51 -161.92,-80.65 z M 2287.54,1646.4 2108.02,1799 c 23.48,54.8 83.15,193.9 132.53,309.08 40.2,-29.36 225.28,-164.48 292.11,-213.28 -335.91,-340.5 -220.07,-223 -245.12,-248.4 z m -512.62,-581.7 c 8.52,14.5 197.09,336.9 206.96,353.8 l 291.62,192.6 -90.7,-443.3 c -104.01,-26.3 -315.4,-79.8 -407.88,-103.1 z m -757.79,103.1 -90.7,443.3 291.62,-192.6 c 9.86,-16.9 198.43,-339.3 206.96,-353.8 -92.51,23.3 -303.81,76.8 -407.88,103.1 z m -57.755,940.28 C 1010.38,1989.1 1068.71,1853.1 1091.91,1799 L 912.387,1646.4 667.27,1894.8 Z m 305.115,163.27 302.83,-157.04 -315.54,-43.25 c 4.66,73.5 10.91,171.83 12.71,200.29 z m 683.66,-200.29 -315.64,43.25 302.93,157.04 z m 295.44,328.9 -16.8,-268.33 -258.65,-59.74 c -6.9,108.71 -6.51,102.49 -13.26,208.88 z m -490.98,-1333.86 -136.77,156 332.05,177.9 c -67.92,-116.1 -102.36,-175 -195.28,-333.9 z m -545.55,383.6 -278.646,184 170.736,145.2 z m 19.13,602.95 -121.31,-233.15 -124.298,289.88 z m 747.55,0 245.6,56.73 -124.29,-289.88 z m 127.04,-273.75 170.74,-145.2 -278.64,-184 c 14.62,44.6 82.23,250.8 107.9,329.2 z m -500.76,-542.6 c -72.97,39.1 -231.78,124.1 -366.27,196.1 -40.34,123.1 -65.78,200.7 -118.92,362.9 16.56,31.8 103.54,199 132.67,254.98 l 352.41,48.3 352.51,-48.3 c 5.73,-11 126.58,-243.28 132.68,-255.08 l -118.92,-362.8 c -18.89,-10.1 -347.55,-186.1 -366.16,-196.1 z M 1252.04,1400 c 85.59,-45.9 250.09,-134 332.15,-177.9 l -136.87,-156 c -88.72,151.7 -45.16,77.2 -195.28,333.9 z m 1305.8,496.4 c 19.58,241.13 -110.97,439.03 -298.99,527.97 -229.37,108.49 -509.93,38.06 -658.82,-180 -148.18,217.45 -429.36,288.85 -658.932,179.89 -0.004,0 -0.024,-0.01 -0.028,-0.01 h -0.004 C 853.641,2383 779.27,2318.29 725.992,2237.14 c -0.004,-0.01 -0.004,-0.01 -0.008,-0.02 -65.804,-99.88 -94.023,-214.19 -83.961,-339.82 -0.183,-0.9 -0.043,-1.9 0.192,-2.9 26.445,-362 309.207,-744.8 607.145,-972.701 0.02,0 0.02,0 0.04,0 116.06,-88.898 232.89,-154.699 347.26,-195.597 2.21,-0.801 4.31,-0.801 6.46,-0.102 0.09,0.102 0.19,0.102 0.28,0.102 443.03,159.097 919.98,697.898 954.32,1168.398 0.17,0.6 0.18,1.3 0.12,1.9" style="fill:#1d1d1b;fill-opacity:1;fill-rule:nonzero;stroke:none" transform="matrix(0.13333333,0,0,-0.13333333,0,1600)" />
</svg>