<?xml version="1.0" encoding="UTF-8"?>
<svg version="1.1" xmlns="http://www.w3.org/2000/svg"
     width="206.5" height="342.5"
     viewBox="1466.00 824.00 206.50 342.50">
  <path d="m 12325,4172.09 c -3.9,1.55 -115.9,46.09 -119.5,47.53 l 168.7,277.24 c -3,-110.46 -19.5,-219.48 -49.2,-324.77 z m -315,-552.98 -51.7,138.2 c 93.6,25.44 157.3,42.75 204.2,55.49 -44.7,-68.93 -95.8,-133.93 -152.5,-193.69 z m -213.4,-182.02 147.3,301.7 c 26.2,-70.07 25.1,-67.17 50.7,-135.64 -60.5,-61.63 -127,-117.35 -198,-166.06 z m -248.4,166.06 c 13.9,37.36 40,107.01 50.7,135.64 l 147.3,-301.7 c -71.1,48.71 -137.5,104.43 -198,166.06 z m 36.3,154.16 -51.7,-138.2 c -57,60.02 -108.1,125.03 -152.5,193.7 71.6,-19.47 133.5,-36.29 204.2,-55.5 z m -51.7,1690.25 51.7,-138.2 c -69.9,-19 -132.2,-35.92 -204.2,-55.5 44.4,68.67 95.5,133.68 152.5,193.7 z m 213.4,182.02 -147.3,-301.7 c -33.8,90.46 -25.3,67.58 -50.7,135.64 60.5,61.62 126.9,117.35 198,166.06 z m 248.4,-166.06 c -25.3,-67.72 -24.1,-64.45 -50.7,-135.64 l -147.3,301.7 c 71,-48.71 137.5,-104.44 198,-166.06 z m -36.3,-154.16 51.7,138.2 c 56.7,-59.76 107.8,-124.76 152.5,-193.69 -47,12.77 -110.8,30.09 -204.2,55.49 z m 247.2,-462.31 c 3.6,1.44 115.6,45.98 119.5,47.53 29.7,-105.29 46.2,-214.31 49.2,-324.76 z m -248.6,-1069.39 c 9.4,73.74 27.6,215.82 37,289.59 92,63.22 51.2,35.18 186.6,128.23 -4.7,-293.31 -3.1,-194.94 -5.7,-358.59 -104.7,-28.47 -158.8,-43.17 -217.9,-59.23 z m -589,59.23 c -2.6,163.85 -1,67.59 -5.6,358.59 134.6,-92.54 95.1,-65.4 186.5,-128.23 9.5,-73.83 27.7,-216.08 37.1,-289.59 -78.4,21.29 -139.4,37.88 -218,59.23 z m -25.7,363.16 5.3,-333.79 c -52.7,90.49 -94.3,186.68 -124,286.53 27.3,10.87 94.6,37.68 118.7,47.26 z m -5,19.57 -119.3,-47.53 c -29.8,105.51 -46.3,214.53 -49.3,324.76 87.3,-143.48 81,-133.18 168.6,-277.23 z m -119.3,674.96 119.3,-47.53 c -85.4,-140.47 -82.9,-136.29 -168.6,-277.22 3,110.22 19.5,219.24 49.3,324.75 z m 124.3,-27.96 c -24.4,9.7 -91.7,36.51 -118.7,47.26 29.7,99.86 71.3,196.05 124,286.53 z m 243.7,422.39 c -9.5,-73.74 -27.6,-215.82 -37.1,-289.59 -91.9,-63.22 -51.1,-35.18 -186.5,-128.23 4.6,292.17 3.1,195.42 5.6,358.59 78.7,21.38 139.6,37.94 218,59.23 z m 588.9,-59.23 c 2.6,-163.57 1.1,-66.45 5.7,-358.59 -134.6,92.54 -95.2,65.4 -186.6,128.23 -9.4,73.83 -27.6,216.08 -37,289.59 58,-15.77 114.2,-31.05 217.9,-59.23 z m -811.2,-1010.94 81.8,276.06 96.9,-398.88 c -93.4,64.17 -85.7,58.88 -178.7,122.82 z m -14.8,608.65 87.1,-294.15 c -79.3,-267.59 -63,-212.78 -87.1,-294.16 l -179,294.16 c 84.1,138.28 46.7,76.79 179,294.15 z m 193.5,143.16 -96.9,-398.87 -81.8,276.05 c 93.1,64.01 85.4,58.73 178.7,122.82 z m 636.9,-122.81 -81.8,-276.06 -96.9,398.87 c 93.3,-64.17 85.6,-58.87 178.7,-122.81 z m -81.8,-352.94 81.8,-276.07 -178.7,-122.81 c 50.8,209.41 45.6,188.02 96.9,398.88 z m -126.9,-453.2 -33.7,-263.78 c -194,73.35 -110.7,42.32 -148.2,56.24 13,14.68 51.3,58.46 181.9,207.54 z m -216.4,-207.57 c -30.8,-11.39 24.6,9.09 -148.1,-56.21 l -33.7,263.78 c 147.3,-168.25 171.6,-196 181.8,-207.57 z m 0.2,1398.59 c -10.4,-11.75 -12.7,-14.43 -182,-207.75 l 33.7,263.78 c 2.2,-0.82 -20.8,7.89 148.3,-56.03 z m 34.3,0 c 13.2,4.78 31,11.73 148.2,56.03 l 33.7,-263.79 c -86.3,98.47 -169.6,193.79 -181.9,207.76 z m 186.8,-243.76 110.7,-455.62 -110.7,-455.63 c -12,-13.69 -195.6,-223.24 -204,-232.89 -6.6,7.35 -203.2,231.88 -204.1,232.89 l -110.7,455.63 110.7,455.62 c 14.8,16.92 193.8,221.13 204.1,232.9 87.5,-99.87 128.2,-146.36 204,-232.9 z m 397.6,-455.62 -179,-294.16 c -45.6,154 -42.1,142 -87.1,294.16 l 87.1,294.15 c 131.5,-216.13 102.3,-168.16 179,-294.15 z m -601.6,714.29 c -22.5,8.49 -128,48.36 -159.9,60.44 l 159.7,327.24 c 6.9,-14.02 42.9,-87.11 160.1,-327.24 -10.6,-3.99 -151.1,-57.12 -159.9,-60.44 z m 159.9,-1489.03 -159.8,-327.24 c -44.1,90.61 2.9,-6.42 -160,327.25 l 159.9,60.43 c 3,-1.13 147,-55.57 159.9,-60.44 z m 269.3,1108.01 -5.3,333.8 c 52.6,-90.37 94.3,-186.57 124.1,-286.53 -21.3,-8.47 5,1.98 -118.8,-47.27 z m 118.8,-713.82 c -29.8,-99.96 -71.5,-196.15 -124.1,-286.53 l 5.3,333.8 c 112.5,-44.75 95.1,-37.85 118.8,-47.27 z m -542.5,1513.95 c -0.2,0.07 -0.2,0.06 -1.3,0.57 -3.2,1.55 -6.7,1.09 -9.2,-0.35 -0.2,-0.09 -0.3,-0.12 -0.5,-0.22 -168.7,-108.89 -311.5,-254.64 -416.3,-424.02 0,0 0,-0.01 0,-0.02 -204.5,-329.9 -252.6,-727.32 -147.9,-1086.78 0,-0.01 0,-0.01 0,-0.02 33.8,-116.5 83.5,-228.17 147.9,-331.93 0,-0.01 0,-0.02 0,-0.02 102,-164.93 243.3,-312.35 416.3,-424.01 2.3,-1.48 5.7,-2.07 8.8,-0.99 8.3,2.9 128.2,81.18 238.7,194.79 0,0 0,0 0,0.01 154,158.57 266.4,351.38 327.8,562.17 165.5,568.24 -58.5,1184.21 -564.3,1510.82" style="fill:#1d1d1b;fill-opacity:1;fill-rule:nonzero;stroke:none" transform="matrix(0.13333333,0,0,-0.13333333,0,1600)" />
</svg>