<?xml version="1.0" encoding="UTF-8"?>
<svg version="1.1" xmlns="http://www.w3.org/2000/svg"
     width="269.5" height="269.5"
     viewBox="1773.50 860.50 269.50 269.50">
  <path d="m 13855.6,4523.34 127.4,-307.23 c -258.4,-258.32 -265.8,-265.64 -269.7,-269.55 -151.8,155.33 -236.4,359.45 -238.9,576.78 z m -142.3,596.77 269.6,-269.61 -127.3,-307.16 h -381.2 c 2.5,217.33 87.1,421.44 238.9,576.77 z m 591,253.17 v -381.3 c -116,-48.06 -295.2,-121.68 -307.3,-127.27 l -269.5,269.54 c 155.3,151.93 359.4,236.52 576.8,239.03 z m 327.3,-508.57 c -22.3,9.17 -295.5,122.58 -307.2,127.25 0.5,13.54 -0.1,79.43 -0.1,381.32 217.4,-2.52 421.5,-87.11 576.8,-239.03 z m 141.3,-321.37 c -5,12.13 -20.6,49.65 -127.3,307.16 l 269.6,269.61 c 151.9,-155.34 236.5,-359.45 239,-576.77 z m 142.3,-596.78 c -144.5,144.54 -133.8,133.77 -269.7,269.65 18,43.79 -12.9,-31.55 127.4,307.13 h 381.3 c -2.5,-217.32 -87.1,-421.44 -239,-576.78 z m -590.6,-207.38 c -0.1,51 -0.3,148.77 -0.3,335.48 5.2,2.08 159.3,66.04 307.2,127.28 129.8,-129.74 77.4,-77.35 269.6,-269.52 -155.3,-151.87 -359.3,-236.45 -576.6,-239.01 0.2,8.9 0.2,22.96 0.1,45.77 z m -327.5,462.76 c 1,-0.41 299.1,-124.08 307.2,-127.31 V 3693.4 c -217.4,2.5 -421.5,87.08 -576.8,239.02 248,247.91 -106.2,-106.21 269.6,269.52 z m 317.2,772.51 c 310.9,-128.73 305.8,-126.66 311.8,-129.14 1.8,-4.69 73.7,-177.82 129.3,-311.97 -52.7,-127.09 -126.4,-304.63 -129.3,-311.98 -24.2,-10.03 90.4,37.46 -311.8,-129.14 -457.2,189.33 -261.6,108.33 -311.9,129.15 -68.7,165.92 -61.9,149.35 -129.3,311.97 86.5,208.55 64.9,156.62 129.5,312.34 16,6.82 59.8,24.47 311.7,128.77 z m 608.1,166.87 c -338.1,337.92 -881.9,334.7 -1216.2,0.04 -335.2,-335.58 -336.8,-879.4 0,-1216.01 168.1,-168.07 385.8,-252 607.5,-252 0.2,-0.06 0.4,-0.02 0.5,-0.01 228,0 444.5,88.12 608.2,251.97 335.2,335.62 336.8,879.41 0,1216.01" style="fill:#1d1d1b;fill-opacity:1;fill-rule:nonzero;stroke:none" transform="matrix(0.13333333,0,0,-0.13333333,0,1600)" />
</svg>