<?xml version="1.0" encoding="UTF-8"?>
<svg version="1.1" xmlns="http://www.w3.org/2000/svg"
     width="256.0" height="256.0"
     viewBox="2458.50 1258.50 256.00 256.00">
  <path d="M 19400,1058.5 20138.9,810 h -1477.8 z m 0,1083.11 -738.9,248.42 h 1477.8 z M 19941.6,1600 20190,2338.9 V 861.199 Z m -1083.2,0 L 18610,861.199 V 2338.9 Z m 541.6,-516.8 c -140,139.9 -434.3,434.2 -516.9,516.8 l 516.9,516.91 516.9,-516.91 c -140,-139.9 -434.3,-434.2 -516.9,-516.8 z m 784.1,1300.93 c -17.1,-50.83 -204.7,-608.93 -257.4,-765.63 l -508.2,508.22 c 231.9,77.98 553.4,186.07 765.6,257.41 z m -1568.2,0 c 212.2,-71.34 533.7,-179.43 765.6,-257.41 l -508.2,-508.22 c -51.2,152.2 -235.7,700.97 -257.4,765.63 z m 0,-1568.232 c 71.3,212.202 179.5,533.902 257.4,765.602 61.9,-61.8 446.3,-446.2 508.2,-508.1 -95.2,-32.1 -670.3,-225.4 -765.6,-257.502 z m 1568.2,0 c -95.6,32.204 -670.5,225.502 -765.6,257.502 61.9,61.8 446.3,446.2 508.2,508.1 78,-231.9 186.1,-553.5 257.4,-765.602 z m 24.6,1589.022 c 0,0.03 -1.6,2.13 -1.6,2.18 -6,6.02 -1613.2,1.91 -1609,2.71 -0.9,-0.17 -2.7,-0.89 -3,-1.07 0,-0.02 -1.7,-1.22 -1.8,-1.36 -6.3,-5.75 -2.8,-1610.778 -2,-1612.278 0,-0.102 0.7,-0.903 0.7,-0.903 1.3,-1.797 0.8,-1.097 1.2,-1.398 0.6,-0.602 2.5,-1.801 3.1,-2 2.3,-1 1604.3,-1.301 1607.3,0 0.8,0.199 3,1.699 3.5,2.199 5.8,5.801 2.4,1610.46 1.6,1611.92" style="fill:#1d1d1b;fill-opacity:1;fill-rule:nonzero;stroke:none" transform="matrix(0.13333333,0,0,-0.13333333,0,1600)" />
</svg>