<?xml version="1.0" encoding="UTF-8"?>
<svg version="1.1" xmlns="http://www.w3.org/2000/svg"
     width="238.5" height="316.0"
     viewBox="1450.00 55.00 238.50 316.00">
  <path d="m 12444,10022.7 c -50.8,29.3 -16.5,9.5 -155.4,89.8 219.1,273.9 184.2,230.2 206.9,258.6 -2.4,-120.3 -19.7,-237.4 -51.5,-348.4 z m -385.6,-554.79 -65.3,220.07 c 144,-11.04 134.2,-10.29 278.9,-21.38 -62.6,-83.98 -134.3,-150.71 -213.6,-198.69 z m -787.6,198.69 c 141.1,10.82 135.8,10.42 278.8,21.38 l -65.3,-220.07 c -79.2,47.97 -150.9,114.71 -213.5,198.69 z m 213.5,1665.5 65.3,-220.1 c -142.7,10.9 -137.5,10.5 -278.8,21.4 62.5,84 134.3,150.7 213.5,198.7 z m 787.7,-198.7 c -70.9,-5.5 -208.2,-16 -278.9,-21.4 l 65.3,220.1 c 79.3,-48 151,-114.8 213.6,-198.7 z m 16.7,-445.9 c 94,54.4 104.4,60.4 155.3,89.8 31.8,-111 49.1,-228.1 51.5,-348.4 -24.2,30.3 -164.5,205.6 -206.8,258.6 z m -4.4,-595.6 153.9,-89 c -33.5,-110.16 -80.1,-210.04 -138.7,-297.45 -3.1,78.12 -9.9,251.48 -15.2,386.45 z m -292.8,-383.75 c 5.7,26.7 56.6,266.64 63.8,300.45 l 208.8,86.3 16.1,-408.87 c -176.5,13.53 -112.5,8.62 -288.7,22.12 z m -15.5,-32.87 64.6,-217.76 c -79.9,-44.94 -164.1,-69.18 -250.7,-72.2 z m -409.3,0 186.2,-289.96 c -86.7,3.02 -170.9,27.26 -250.8,72.2 z m -304.2,10.75 c 5.6,140.99 12.7,321.87 16.1,408.87 141.8,-58.6 106.3,-43.9 208.9,-86.3 2.6,-12.67 60.7,-286.33 63.7,-300.45 -175.8,-13.48 -112,-8.58 -288.7,-22.12 z m -163.8,1091.27 c 51.1,-29.5 61.4,-35.5 155.4,-89.8 l -206.8,-258.6 c 2.4,120.3 19.6,237.3 51.4,348.4 z m 159.3,-69 -153.4,88.7 c 33.4,110.2 80,210.1 138.7,297.5 18.6,-476.1 12.6,-338.5 14.7,-386.2 z m 293.2,383.5 c -3,-14.1 -61.1,-287.7 -63.7,-300.4 l -208.9,-86.4 -16.1,408.9 c 176.8,-13.5 112.9,-8.6 288.7,-22.1 z m 15.5,32.9 -64.6,217.8 c 79.9,44.9 164.1,69.1 250.8,72.2 z m 409.3,0 -186.1,290 c 86.6,-3.1 170.8,-27.3 250.7,-72.2 -15.8,-53.5 -47.9,-161.5 -64.6,-217.8 z m 300.6,-454.2 216.4,-270.5 -216.4,-270.6 -105.3,270.6 c 78.5,201.7 57.3,147 105.3,270.5 z m -505.2,-826.31 194.6,-147.52 -194.6,-303.16 -194.6,303.16 z m -489.4,271.01 c 70.6,181.2 47.6,122.1 98.9,253.9 13.8,-46.7 86.3,-290.8 99.7,-336 -103.3,42.7 -94.7,39.1 -198.6,82.1 z m 489.4,840.6 -194.6,147.5 194.6,303.2 194.4,-303 c -65.1,-47.6 127.2,96.1 -194.4,-147.7 z m 492.8,-250.8 -208.9,86.4 c -0.4,1.8 -63.3,298.4 -63.8,300.4 l 288.7,22.1 z m -102.3,-274.2 c -22.1,74.4 -6,20.2 -99.7,336.1 252.1,-104.2 172.8,-71.8 198.5,-82.2 -51.2,-131.5 -48,-123.3 -98.8,-253.9 z m -372.5,-575.18 242.8,140.32 -59.3,-279.39 z m -219.5,-139.07 -59.3,279.39 242.7,-140.32 z m -303.8,953.95 105.3,-270.5 -105.3,-270.6 -216.3,270.6 z m 487.2,273.9 -242.7,-140.4 59.3,279.4 z m 36.1,0 183.4,139 c 23.3,-112.6 -42.8,201.9 59.4,-279.4 z m -408.5,-513.5 -98.8,253.8 c 80.9,32.8 -146.6,-60.5 198.5,82.2 z m 769.3,-30.9 c -33.2,-111.6 -61.1,-205.9 -112.1,-377.5 l -266.7,-154.2 -266.8,154.2 c -27.4,92.3 -60.7,204.4 -112,377.5 32.4,109.4 91.2,307.2 112,377.5 92.4,53.4 172,99.4 266.8,154.2 93.5,-54.1 173.2,-100.2 266.7,-154.2 21.3,-71.8 79.7,-268.6 112.1,-377.5 z m -88,-366.9 99.7,336 98.8,-253.9 c -126.3,-52.2 -70.1,-29 -198.5,-82.1 z m 237.3,1061.4 c 58.6,-87.4 105.2,-187.3 138.7,-297.5 l -153.5,-88.7 c 2.7,58.5 -2.9,-61.7 14.8,386.2 z m -1200.8,-1071.8 c -31.8,111 -49,228.1 -51.4,348.4 l 206.8,-258.6 c -94,-54.4 -104.5,-60.4 -155.4,-89.8 z m 144.6,-317.24 c -58.7,87.43 -105.3,187.32 -138.7,297.44 l 153.9,89 c -1.8,-44.4 -11.7,-295.46 -15.2,-386.44 z m 1055.5,1425.14 c -290.8,406 -764,406 -1054.8,0 -374.4,-522.6 -245.6,-1404.71 241.2,-1686.49 0.1,0 0.1,-0.01 0.1,-0.01 182.2,-105.48 389.6,-105.67 572.2,0 488.1,282.48 614.5,1165.8 241.3,1686.5" style="fill:#1d1d1b;fill-opacity:1;fill-rule:nonzero;stroke:none" transform="matrix(0.13333333,0,0,-0.13333333,0,1600)" />
</svg>