<?xml version="1.0" encoding="UTF-8"?>
<svg version="1.1" xmlns="http://www.w3.org/2000/svg"
     width="214.5" height="336.0"
     viewBox="784.00 45.00 214.50 336.00">
  <path d="m 6981.87,9383.44 -59.72,183.34 277.36,5.61 c -56.97,-78.55 -131.73,-143.47 -217.64,-188.95 z m -574.25,-9.18 58.98,181.09 c 21.99,-27.47 44.76,-54.93 197.94,-245.01 -89.83,2.91 -176.12,24.37 -256.92,63.92 z m -235.68,198.13 277.35,-5.61 -59.71,-183.33 c -85.92,45.47 -160.66,110.38 -217.64,188.94 z m 71.52,1285.61 c 6.74,-54.4 8.5,-66.4 44.65,-355.8 l -152.12,74.5 c 28.51,97.3 63.81,189.7 107.47,281.3 z m 193.81,325.9 c 27.73,-62.9 46.71,-105.9 75.05,-170.2 l -241.64,-100.8 c 47.19,91.6 101.93,180.6 166.59,271 z m 224.79,275.7 -137.87,-423.3 -73.35,166.4 c 62.04,85.1 131.43,169.5 211.22,256.9 z m 185.2,-423.3 -137.87,423.3 c 79.75,-87.4 149.15,-171.8 211.22,-256.9 z m 236.08,-534.1 c 28.83,230.9 19.24,154.1 44.46,356.1 43.74,-91.6 79.1,-184.1 107.66,-281.6 z m -178.5,-946.85 58.98,-181.09 c -80.8,-39.55 -167.08,-61.01 -256.92,-63.92 296.52,367.87 120.54,148.32 197.94,245.01 z m -424.77,15.77 205.65,60.31 c 71.75,-21.04 128.57,-37.7 205.65,-60.3 -24.87,-30.86 -171.74,-213.13 -205.65,-255.2 -61.56,76.39 -144.06,178.77 -205.65,255.19 z m -272.46,382.82 c -44.45,-252.36 -56.05,-316.18 -60.96,-343.93 -60.76,97.77 -93.48,209.53 -95.07,325.31 z m -137.94,299.26 c 39.29,-81.1 95.91,-198.4 135.03,-279.46 l -153.16,-18.28 c 0.42,103.24 6.51,203.24 18.13,297.74 z m 60.7,304 151.7,-74.3 -204.28,-170.3 c 12.65,83.4 30.3,165.5 52.58,244.6 z m 129.86,329.6 255.11,106.5 c -3.18,-194.4 -2.92,-178.4 -6.15,-374.8 -71.84,-41.9 -123.51,-72.1 -200.82,-117.1 -10.4,83.2 -41.13,329.3 -48.14,385.4 z m 829.13,-403.9 151.71,74.3 c 22.29,-79.1 39.93,-161.2 52.56,-244.5 -52.6,43.7 -95.86,79.6 -204.27,170.2 z m 77.39,-509.17 135.04,279.47 c 11.62,-94.5 17.69,-194.4 18.11,-297.74 -49.53,5.91 -110.14,13.14 -153.15,18.27 z m -2.91,-19.79 156.02,-18.62 c -1.59,-115.78 -34.3,-227.54 -95.07,-325.31 -6.22,35.13 -15.5,85.84 -60.95,343.93 z m -937.32,-7.93 c 74.52,-66.76 117.82,-105.55 166.54,-149.2 l 56.7,-210.03 -285.5,5.77 c 80.19,455.25 45.03,255.65 62.26,353.46 z m 67.56,520.89 c 16.21,-74 35.08,-160.1 54.91,-250.7 l -128.53,-229.1 -143.93,298.4 c 125.13,104.3 70.71,58.9 217.55,181.4 z m 204.9,122.5 -136.59,-340.9 -50.74,231.6 c 107.74,62.9 76.82,44.8 187.33,109.3 z m 186.74,252.6 c -12.78,14.5 -131.65,149.2 -148.84,168.7 l 148.84,457 148.85,-457 c -17.19,-19.5 -136.05,-154.1 -148.85,-168.7 z m 267.88,-1060.2 -52.04,-192.81 -190.32,55.79 z m -117.33,1200.6 5.58,-339.9 c -35.43,45.5 -107.67,138.4 -143.15,184 84.11,95.3 55.42,62.8 137.57,155.9 z m 223.52,-502.3 -50.73,-231.6 -136.59,340.9 c 121.77,-71 72.21,-42.1 187.32,-109.3 z m -641.95,-698.3 242.36,-137.02 -190.31,-55.79 z m -64.98,400.4 36.5,-355.22 -156.92,140.58 z m 648.8,31 c -11.26,-109.6 -31.81,-309.62 -41.59,-404.77 l -274.35,-155.1 -274.34,155.1 c -9.79,95.24 -30.4,295.87 -41.6,404.77 l 158.09,394.5 157.85,202.9 157.86,-202.9 z m 16.93,-31 120.41,-214.64 -156.91,-140.58 z m 132.4,-195.12 c -65.04,115.92 -62.95,112.22 -128.54,229.12 l 54.91,250.6 217.61,-181.8 c -91.18,-188.6 -62,-128.3 -143.98,-297.92 z m -615.82,995.32 c 82.12,-93 53.73,-60.9 137.57,-155.9 -35.48,-45.6 -107.71,-138.5 -143.15,-184 z m 672.01,-1389.85 -285.49,-5.77 56.69,210.03 c 48.65,43.58 91.9,82.33 166.54,149.2 21.63,-122.73 42.7,-242.4 62.26,-353.46 z m -95.97,1294.25 -48.13,-385.4 c -77.45,45.1 -128.97,75.2 -200.83,117.1 -3.22,196.4 -2.96,180.4 -6.15,374.8 95.92,-40 158.11,-66 255.11,-106.5 z m -177.03,297.1 c 64.6,-90.3 119.26,-179.2 166.4,-270.7 -43.04,18 -68.62,28.4 -241.46,100.5 28.35,64.3 47.33,107.3 75.06,170.2 z M 7228.6,9579.16 c 72.82,108.07 111.32,234.23 111.32,365.03 0,119.61 -7.53,234.81 -22.37,342.71 0.34,1.7 0.38,3 -0.67,4.8 -30.74,220.1 -93.34,419.7 -185.62,605.2 -0.24,0.7 -0.49,1.3 -0.92,1.8 -89.75,179.9 -221.87,377.6 -437.31,608.1 -0.01,0 -1.69,1.4 -1.86,1.5 -0.14,0.1 -0.22,0.2 -0.36,0.3 -0.48,0.3 -2.74,1.1 -3.43,1.2 -0.31,0.1 -0.62,0.1 -0.93,0.1 -0.25,0 -0.48,0.1 -0.73,0.1 -0.25,0 -0.48,-0.1 -0.73,-0.1 -0.31,0 -0.62,0 -0.93,-0.1 -0.55,-0.1 -2.52,-0.7 -3.16,-1.1 -0.09,0 -0.18,0 -0.27,-0.1 -0.13,-0.1 -0.22,-0.2 -0.35,-0.3 -0.18,-0.1 -1.86,-1.5 -1.86,-1.5 -171.42,-183.4 -324.82,-382.4 -437.71,-608.8 -0.18,-0.3 -0.35,-0.7 -0.49,-1 -149.27,-300 -208.7,-611 -208.7,-952.81 0,-130.8 38.51,-256.96 111.33,-365.04 0.39,-1.69 1.23,-2.56 2.42,-3.58 62.22,-91.05 147.11,-165.5 245.66,-215.35 0,0 0.01,0 0.02,0 293.59,-148.52 650.49,-55.01 835.22,215.35 1.2,1.02 2.03,1.9 2.43,3.59" style="fill:#1d1d1b;fill-opacity:1;fill-rule:nonzero;stroke:none" transform="matrix(0.13333333,0,0,-0.13333333,0,1600)" />
</svg>