<?xml version="1.0" encoding="UTF-8"?>
<svg version="1.1" xmlns="http://www.w3.org/2000/svg"
     width="282.5" height="282.5"
     viewBox="750.00 463.00 282.50 282.50">
  <path d="m 6041.55,6694.97 h 1288.32 l 216.66,-118.3 H 5824.9 c 132.2,72.18 139.16,75.98 216.65,118.3 z m 1504.99,1661.7 c -75.76,-41.38 -140.88,-76.93 -216.66,-118.31 H 6041.55 c -99.09,54.11 -51.04,27.87 -216.65,118.31 z M 6685.72,6880.85 c 122.13,-35.18 439.2,-126.51 575.87,-165.88 H 6109.84 c 216.69,62.41 364.28,104.93 575.88,165.88 z m -874.89,-289.08 c 31.95,58.52 90.85,166.39 120.63,220.94 l 239.73,139.42 c -40.87,-70.27 -77.19,-132.71 -139.43,-239.72 -43.93,-23.99 -169.08,-92.33 -220.93,-120.64 z m 220.93,1629.15 c 53.75,-92.41 114.15,-196.26 139.43,-239.72 l -239.73,139.42 c -29.92,54.8 -88.75,162.55 -120.63,220.94 75.76,-41.37 143.52,-78.37 220.93,-120.64 z m 653.96,-168.44 c -106.13,30.57 -408.63,117.71 -575.87,165.88 h 1151.74 z m 771.7,-1229.97 v 1288.31 l 118.3,216.66 V 6605.85 Z m -1397.24,-101.04 143.78,247.22 437.98,-79.64 C 6360.69,6808.03 6224.85,6768.9 6060.18,6721.47 Z M 5914.02,8110.82 V 6822.51 l -118.3,-216.66 v 1721.63 z m 1525.96,9.8 -239.73,-139.42 139.43,239.72 220.94,120.64 c -31.95,-58.52 -90.85,-166.38 -120.64,-220.94 z m -2.56,-1229.82 -165.88,575.87 165.88,575.86 z m -269.93,77.89 c 77.68,-133.57 60.21,-103.52 143.78,-247.22 l -581.76,167.58 z m -481.77,-67.27 c -139.44,25.35 -329.37,59.88 -478.28,86.96 l -86.96,478.29 86.96,478.28 c 148.92,27.08 338.82,61.6 478.28,86.96 139.45,-25.35 329.37,-59.88 478.28,-86.96 l 86.97,-478.28 -86.97,-478.29 c -148.92,-27.08 -338.82,-61.6 -478.28,-86.96 z m -751.7,1141.11 165.88,-575.86 -165.88,-575.87 z m 269.94,-77.89 -143.78,247.22 581.76,-167.58 z m -95.85,-541.76 79.63,-437.98 -247.21,-143.78 z m 0,87.57 -167.58,581.76 247.21,-143.78 z m 1059.38,454.19 -437.98,79.64 581.76,167.57 C 7189,8001.62 7220.93,8056.52 7167.49,7964.64 Z m 95.85,-454.19 -79.64,437.98 247.22,143.78 z m -79.64,-525.55 79.64,437.98 167.58,-581.76 z m 155.98,-272.49 -139.43,239.72 239.73,-139.42 c 29.92,-54.8 88.76,-162.55 120.64,-220.94 -58.52,31.95 -166.39,90.85 -220.94,120.64 z m 256.04,1654.26 c 0,0.23 -0.09,0.43 -0.11,0.66 -0.03,0.45 -0.2,1.8 -0.2,1.81 -0.37,1.44 -1.76,3.74 -2.62,4.6 -0.15,0.15 -0.35,0.22 -0.51,0.37 -2.25,1.98 -4.2,2.32 -5.87,2.44 -6.12,0.43 -1804.54,-0.67 -1803.54,-0.37 -1.59,-0.48 -2.74,-1.23 -3.71,-2.08 -5.99,-5.28 -3.4,-1807.08 -3.32,-1808.11 0.03,-0.43 0.19,-1.79 0.2,-1.8 0.25,-1 1.14,-2.84 2.24,-4.08 4.71,-5.35 1809.12,-3.32 1810.29,-2.96 11.01,3.31 7.15,-67.05 7.15,1809.52" style="fill:#1d1d1b;fill-opacity:1;fill-rule:nonzero;stroke:none" transform="matrix(0.13333333,0,0,-0.13333333,0,1600)" />
</svg>