<?xml version="1.0" encoding="UTF-8"?>
<svg version="1.1" xmlns="http://www.w3.org/2000/svg"
     width="244.0" height="306.5"
     viewBox="91.00 842.00 244.00 306.50">
  <path d="m 2180.88,3560.01 c -109.27,207.61 -61.94,117.68 -174.69,331.92 l 331.93,-174.68 z m -1087.84,-6.67 507.04,145.03 c 327.68,-93.74 185.76,-53.14 506.96,-145.03 z m 100.82,338.59 c -113.24,-215.18 -65.9,-125.22 -174.69,-331.92 l -157.24,157.24 z m -174.69,1614.74 c 114.36,-217.29 83.33,-158.33 174.69,-331.93 l -331.93,174.68 z m 580.91,-138.36 -507.04,145.03 h 1014 c -321.08,-91.86 -179.28,-51.29 -506.96,-145.03 z m 406.11,-193.57 c 87.42,166.12 56.36,107.1 174.69,331.93 l 157.24,-157.25 z m 152.41,-1615.34 -532.21,152.25 351.8,190.53 c 58.58,-111.3 127.78,-242.78 180.41,-342.78 z m -180.41,1605.09 -351.8,190.54 532.21,152.25 c -13.81,-26.24 -134.43,-255.42 -180.41,-342.79 z m 366.6,-1343.78 -142.6,712.63 142.6,712.62 z m -350.24,99.95 194.94,574.21 c 46.48,-232.28 106.89,-534.17 151.37,-756.46 z m -394.47,-200.51 -342.89,185.64 h 685.68 C 1814.35,3836.19 1631.2,3737 1600.08,3720.15 Z m -589.52,774.72 194.94,-574.21 -346.316,-182.25 c 44.48,222.28 104.894,524.18 151.376,756.46 z M 855.258,5245.96 997.859,4533.34 855.258,3820.71 Z m 350.242,-99.95 -194.94,-574.2 c -45.658,228.16 -106.794,533.67 -151.376,756.45 z m 737.37,14.87 h -685.68 l 342.89,185.65 c 70.45,-38.15 186.85,-101.2 342.79,-185.65 z m 49.46,-70.56 189.1,-556.98 -189.1,-556.99 z m -764.61,50.56 h 744.61 V 3925.79 h -744.61 z m -20,-1164.53 -189.1,556.99 189.1,556.98 z m 981.77,595.46 -194.94,574.2 346.31,182.25 c -44.29,-221.33 -105.61,-527.78 -151.37,-756.45 z m -615.73,783.21 -351.9,-190.53 -180.41,342.79 z m -532.31,-1795.62 180.41,342.78 351.9,-190.52 z m 1323.29,1787.78 c -0.04,1.05 0.05,1.37 -0.56,3.08 -2.21,6.17 -185.42,185.43 -179.66,180.86 -4.46,3.53 52.85,2.22 -1162.82,2.22 -6.54,0 0.55,4.69 -183.512,-179.38 -0.02,-0.02 -0.528,-0.66 -0.543,-0.68 -0.52,-0.62 -1.102,-1.42 -1.567,-2.53 -1.781,-4.2 -0.426,-1633.83 0,-1634.83 1.008,-2.39 177.952,-180.28 181.942,-181.85 3.16,-1.26 1161.22,-1.21 1164.37,0.17 3.05,1.35 180.19,178.68 181.43,181.41 1.75,3.86 0.95,1630.53 0.92,1631.53" style="fill:#1d1d1b;fill-opacity:1;fill-rule:nonzero;stroke:none" transform="matrix(0.13333333,0,0,-0.13333333,0,1600)" />
</svg>