<?xml version="1.0" encoding="UTF-8"?>
<svg version="1.1" xmlns="http://www.w3.org/2000/svg"
     width="282.5" height="283.0"
     viewBox="72.00 71.50 282.50 283.00">
  <path d="m 1949.91,9581.41 -79.66,192.23 c 71.92,-3.94 234.54,-12.85 342.89,-18.79 -77.15,-73.41 -165.57,-131.68 -263.23,-173.44 z m -98.14,184.58 79.67,-192.24 c -98.39,-39.52 -202.12,-60.83 -308.78,-63.48 205.83,229.73 163.24,182.2 229.11,255.72 z m -885.754,382.31 -192.332,-79.7 c -39.465,98.2 -60.75,202 -63.379,308.8 106.648,-95.6 131.879,-118.2 255.711,-229.1 z m -192.332,583.1 192.332,-79.7 c -118.508,-106.1 -132.786,-118.9 -255.711,-229.1 2.629,106.8 23.914,210.5 63.379,308.8 z m 476.356,487.2 79.66,-192.3 c -86,4.8 -254.77,14 -342.802,18.8 77.142,73.4 165.532,131.7 263.142,173.5 z m 98.14,-184.6 -79.67,192.2 c 98.49,39.6 202.24,60.9 308.87,63.5 z m 583.26,192.2 c -29.53,-71.2 -49.75,-120.1 -79.67,-192.3 -78.18,87.3 -87.62,97.8 -229.11,255.8 106.65,-2.6 210.38,-23.9 308.78,-63.5 z m -61.19,-199.9 c 13.19,31.8 48.36,116.7 79.67,192.3 97.66,-41.8 186.07,-100 263.23,-173.5 z m 363.69,-374.6 c 72.21,30 121.03,50.2 192.32,79.7 39.53,-98.4 60.84,-202.1 63.49,-308.8 -77.56,69.5 -179.42,160.7 -255.81,229.1 z m 192.32,-583.1 c -71.28,29.5 -120.1,49.7 -192.32,79.7 87.28,78.1 97.83,87.6 255.81,229.1 -2.65,-106.7 -23.96,-210.4 -63.49,-308.8 z m -199.98,61.2 192.32,-79.7 c -41.84,-97.63 -100.11,-186.05 -173.44,-263.22 z m -878.1,-363.81 c 100.51,-112.14 187.93,-209.67 229.2,-255.72 -106.64,2.65 -210.38,23.96 -308.87,63.48 z m -374.508,904.21 c -136.82,56.7 -85.274,35.3 -192.324,79.7 41.875,97.7 100.16,186.1 173.535,263.2 8.91,-162.6 9.793,-178.7 18.789,-342.9 z m 358.198,336 -77.19,-260.9 -260.86,-77.2 -19.601,357.7 c 126.241,-6.9 222.001,-12.2 357.651,-19.6 z m 507.17,11.9 c -127.3,-69.1 -114.65,-62.2 -239.01,-129.7 -387.55,210.5 -168.9,93.2 -238.95,130 80.86,90.2 143.08,159.7 238.94,266.6 115.61,-129.1 49.05,-54.8 239.02,-266.9 z m 387.24,-347.9 18.88,342.9 c 73.33,-77.2 131.6,-165.6 173.44,-263.2 z m -280.91,-615.5 c 66.32,19.6 194.6,57.6 260.76,77.2 10.59,-192.34 10.22,-185.52 19.7,-357.71 l -357.72,19.6 z m -345.35,-143.09 239.02,-129.87 -239.02,-266.76 -239.1,266.76 z m -345.34,143.09 c 59.66,-201.65 17.89,-60.5 77.2,-260.91 l -357.661,-19.6 19.601,357.71 z m -143.04,345.3 -129.863,-239 -266.765,239 266.765,239 z m 1094.49,268.1 -260.76,77.2 -77.26,260.8 357.72,19.7 c -9.71,-176.3 -8.93,-162.2 -19.7,-357.7 z m -127.89,-244.9 c -17.42,42.1 -97.94,236.5 -123.65,298.6 62.45,-18.6 183.53,-54.4 246.15,-73 -73.62,-135.6 -76.62,-141.1 -122.5,-225.6 z m 122.5,-272 -246.15,-73 c 43.24,104.5 80.4,194.2 123.65,298.6 42.92,-79 74.4,-137 122.5,-225.6 z m -849.52,-351.97 c -11.43,38.95 -0.75,2.16 -72.96,246.17 183.12,-75.81 115.53,-47.81 298.57,-123.62 -137.19,-74.52 -87.33,-47.44 -225.61,-122.55 z m 0,1201.57 225.61,-122.6 c -175.99,-72.9 -115.53,-47.8 -298.57,-123.6 89.7,303.1 60.65,204.3 72.96,246.2 z m -105.76,-922.6 -246.245,73 122.585,225.6 c 46.68,-112.7 79.41,-191.7 123.66,-298.6 z m -123.66,345 -122.585,225.6 246.245,73 c -43.78,-105.8 -76.71,-185.2 -123.66,-298.6 z m 799.98,-377.8 -72.93,-246.22 -225.63,122.59 c 113.07,46.84 192.37,79.63 298.56,123.63 z m 7.89,684.2 c 115.76,-279.4 85.91,-207.4 136.53,-329.6 -50.62,-122.2 -20.76,-50.1 -136.53,-329.6 -279.48,-115.81 -207.43,-85.96 -329.65,-136.58 -122.21,50.61 -50.14,20.76 -329.64,136.58 -115.76,279.4 -85.91,207.4 -136.53,329.6 50.61,122.2 20.76,50.1 136.53,329.6 192.22,79.7 152,63 329.64,136.6 177.08,-73.4 136.89,-56.7 329.65,-136.6 z m -7.89,25 c -104.42,43.2 -194.14,80.4 -298.56,123.6 l 225.63,122.5 z m 563.25,-354.6 c -99.33,-89 -166.74,-149.3 -266.85,-239 -27.22,50.1 -89.12,164.1 -129.77,239 64.92,119.6 59.79,110.1 129.77,239 159.51,-142.9 165.01,-147.8 266.85,-239 z M 954.883,9786.87 c -73.375,77.11 -131.66,165.52 -173.535,263.23 107.14,44.4 55.203,22.9 192.324,79.7 -8.996,-164.21 -9.887,-180.45 -18.789,-342.93 z m 32.019,-32.02 c 246.568,13.49 306.908,16.45 342.638,18.41 l -79.5,-191.85 c -97.61,41.78 -186,100.05 -263.138,173.44 z M 2510.02,10400 c 0,646.2 -658.77,1089.4 -1258.42,840.9 -221.96,-91.9 -399.959,-269.6 -492.608,-492.6 -0.004,0 -0.008,0 -0.008,0 -91.957,-221.7 -92.121,-474.5 0,-696.6 247.846,-597.74 1025.686,-754.03 1484.516,-295.18 169.19,169.21 266.52,398.28 266.52,643.48" style="fill:#1d1d1b;fill-opacity:1;fill-rule:nonzero;stroke:none" transform="matrix(0.13333333,0,0,-0.13333333,0,1600)" />
</svg>