<?xml version="1.0" encoding="UTF-8"?>
<svg version="1.1" xmlns="http://www.w3.org/2000/svg"
     width="313.5" height="286.5"
     viewBox="1073.50 852.00 313.50 286.50">
  <path d="m 8530.21,3973.08 -286.98,-243.57 390.68,806.8 z m 612.48,1060.99 c -54.37,-46.32 -306.19,-260.89 -435.75,-371.29 l 503.29,741.59 z m 607.45,-371.32 -435.9,371.32 -67.36,370.33 z m 176.7,-689.67 c -66.94,363.53 -29.9,162.35 -103.71,563.24 l 390.77,-806.83 z m -85.77,-148.45 354.53,-126.87 -894.04,-64.96 z m -1225.1,0 539.61,-191.83 -894.05,64.96 z m 1283.47,186.75 -324.52,465.85 c -40.13,85.51 -184.55,393.26 -241.2,513.97 l 457,-389.31 c 26.88,-145.95 81.79,-444.23 108.72,-590.51 z m -51.64,-167.92 -70.57,116.99 136.67,-2.63 281.3,-238.67 z m -1304.65,114.36 c 12.41,0.25 -43.46,-0.83 136.66,2.63 -13.11,-21.73 -4.15,-6.88 -70.57,-116.99 -292.13,-104.56 -170.61,-61.07 -347.29,-124.3 z m 751.41,1072.66 c -33.93,-61.6 -19.62,-35.63 -66,-119.83 l -66.2,119.84 66.2,362.9 z M 8851.78,4398.7 c -26.75,-69.48 -119.54,-310.45 -160.96,-418.03 -45.05,-0.87 -16.11,-0.31 -132.01,-2.54 59.38,85.24 224.31,322.01 292.97,420.57 z m 300.83,608.07 63.95,-115.77 c -25.35,-31.36 -249.11,-308.1 -281.68,-348.37 76.28,162.6 12.69,27.05 217.73,464.14 z m 87.97,-115.76 63.75,115.74 217.76,-464.03 z m 581.8,-1044.14 -510.62,43.24 442.46,69.76 c 35.32,-58.55 33.22,-55.08 68.16,-113 z m -677,43.24 -510.72,-43.24 68.16,113 z m 600.14,88.65 -516.95,-81.51 -517.05,81.51 188.05,488.39 329,406.88 328.89,-406.88 z m 20.7,1.91 -160.96,418.01 292.97,-420.55 c -80.26,1.55 -80.43,1.55 -132.01,2.54 z m -1099.9,621.23 456.89,389.29 c -62.05,-132.27 -198.86,-423.92 -241.1,-513.96 L 8557.6,4011.38 c 26.94,146.32 81.85,444.57 108.72,590.52 z m 562.25,-973.81 c -143.9,51.15 -425.99,151.43 -565.69,201.09 l 565.69,47.9 565.59,-47.9 c -214.3,-76.2 -365.63,-130 -565.59,-201.09 z m 579.61,984.73 c -597.02,879.85 -571.37,842.57 -573.49,844.23 -0.17,0.12 -2.31,1.4 -2.33,1.41 -0.08,0.03 0.01,-0.04 -0.64,0.18 -0.31,0.1 -2.68,0.51 -2.92,0.52 -0.08,0 -0.15,0.04 -0.23,0.04 -0.07,0 -0.14,-0.04 -0.22,-0.04 -0.39,-0.01 -2.75,-0.42 -3.39,-0.67 -4.75,-1.86 -575.59,-844.94 -576.24,-845.99 -0.63,-1 -445.11,-917.25 -445.02,-921.48 0.01,-0.39 -0.09,-0.76 -0.04,-1.15 0.01,-0.06 0.05,-0.11 0.06,-0.18 0.12,-0.74 0.98,-3.01 1.12,-3.27 0.03,-0.06 0.04,-0.14 0.07,-0.2 0.05,-0.08 0.62,-0.79 0.64,-0.82 1.21,-1.66 0.96,-1.21 1.57,-1.73 5.09,-5.09 1041.02,-76.2 1021.45,-76.2 1.03,0 1017.03,73.1 1020.63,75.61 0.2,0.1 0.4,0.13 0.5,0.24 0,0 0.2,0.24 0.4,0.38 0.5,0.44 0.3,0.08 1.5,1.74 0.2,0.2 0.4,0.38 0.5,0.59 0,0.07 0.1,0.12 0.1,0.19 0.2,0.21 1.1,2.71 1.2,3.47 0.8,4.78 -444.53,922.12 -445.22,923.13" style="fill:#1d1d1b;fill-opacity:1;fill-rule:nonzero;stroke:none" transform="matrix(0.13333333,0,0,-0.13333333,0,1600)" />
</svg>